PathFileType	4	(X/Y/Z)	E:\3-PhD\Data\MocapData\ElaboratedData\009\pre\dynamicElaborations\RunL1\RunL1.trc
DataRate	CameraRate	NumFrames	NumMarkers	Units	OrigDataRate	DataStartFrame
200	200	4	54	mm	200	438
Frame#	Time	FHD			LBHD			RBHD			C7			T10			CLAV			LSHO			LUUPA			LMUPA			LDUPA			LLEP			LMEP			LRAD			LUL			LRFIN			RSHO			RUPA1			RMUPA			RDUPA			RLEP			RMEP			RRAD			RUL			RUFIN			RASI			USACR			LSACR			RSACR			LTHI1			LTHI2			LTHI3			LTHI4			LTIB1			LTIB2			LTIB3			LTIB4			LLMAL			LHEE			LMT1			LMT2			RTHI			RTHI2			RTHI3			RTHI4			RLFC			RTIB1			RTIB2			RTIB3			RTIB4			RLMAL			RHEE			RMT1			RMT2			RMT5		
		X1	Y1	Z1	X2	Y2	Z2	X3	Y3	Z3	X4	Y4	Z4	X5	Y5	Z5	X6	Y6	Z6	X7	Y7	Z7	X8	Y8	Z8	X9	Y9	Z9	X10	Y10	Z10	X11	Y11	Z11	X12	Y12	Z12	X13	Y13	Z13	X14	Y14	Z14	X15	Y15	Z15	X16	Y16	Z16	X17	Y17	Z17	X18	Y18	Z18	X19	Y19	Z19	X20	Y20	Z20	X21	Y21	Z21	X22	Y22	Z22	X23	Y23	Z23	X24	Y24	Z24	X25	Y25	Z25	X26	Y26	Z26	X27	Y27	Z27	X28	Y28	Z28	X29	Y29	Z29	X30	Y30	Z30	X31	Y31	Z31	X32	Y32	Z32	X33	Y33	Z33	X34	Y34	Z34	X35	Y35	Z35	X36	Y36	Z36	X37	Y37	Z37	X38	Y38	Z38	X39	Y39	Z39	X40	Y40	Z40	X41	Y41	Z41	X42	Y42	Z42	X43	Y43	Z43	X44	Y44	Z44	X45	Y45	Z45	X46	Y46	Z46	X47	Y47	Z47	X48	Y48	Z48	X49	Y49	Z49	X50	Y50	Z50	X51	Y51	Z51	X52	Y52	Z52	X53	Y53	Z53	X54	Y54	Z54	

481	2.400000	-1646.470467	1519.756630	393.443028	-1806.862488	1578.585447	289.574151	-1784.270276	1558.842797	412.743424	-1914.760830	1445.857256	335.752322	-2092.711547	1144.908668	383.999657	-1808.334306	1310.865672	337.620097	-1834.661161	1383.812447	195.453419	-1865.113516	1212.376785	99.749895	-1824.531060	1188.451913	111.625597	-1856.205771	1145.106262	83.777059	-1844.293601	1021.555195	75.354746	-1861.805633	996.364389	143.196405	-1625.991888	1067.182842	197.599098	-1597.215663	1005.503958	167.439351	-1568.690734	1104.276931	173.611999	-1848.625092	1400.187103	502.225747	-1988.171725	1330.056075	606.486617	-1990.153806	1282.204567	608.408812	-2043.600810	1299.922357	631.764065	-2150.980512	1226.930390	670.074309	-2185.962005	1231.164434	609.560992	-2143.256373	966.359496	641.190263	-2198.159950	975.635031	689.115369	-2110.667622	919.311077	698.362593	-1976.140520	918.093155	444.659756	-2136.525432	1069.638258	403.469306	-2157.135369	1042.283815	377.293913	-2138.920207	1036.485091	433.584492	-2153.843950	721.685809	169.339701	-2135.714444	639.237346	163.993809	-2088.575739	632.616819	165.487906	-2171.513447	591.661465	179.361970	-2217.447477	306.452480	242.389180	-2297.350062	304.647911	206.093258	-2266.874510	280.536332	224.664311	-2307.883354	218.525337	266.744606	-2444.631322	132.971501	278.655200	-2528.518566	121.023662	332.928050	-2317.548753	55.484923	339.594902	-2323.943439	54.341408	294.587004	-1937.369460	732.381234	531.745792	-1877.239005	707.403747	526.004026	-1851.282938	723.580345	509.423044	-1859.932076	624.593967	513.693315	-1807.793956	546.586534	490.745733	-1974.764350	445.325269	431.810909	-2065.736421	486.446547	469.395046	-2055.712728	446.853163	447.593115	-2099.179078	430.457001	414.906270	-2201.198216	461.410746	446.494105	-2261.064874	522.275468	403.027135	-2224.934047	302.211136	368.921745	-2220.782854	299.316632	410.837314	-2253.796855	331.139019	463.823069	
482	2.405000	-1617.808879	1522.928181	395.052782	-1778.129992	1581.821372	291.147723	-1755.545808	1562.176703	414.275077	-1886.120273	1448.365014	336.401291	-2062.756249	1146.233880	381.406574	-1778.901989	1314.288677	339.961255	-1803.482498	1388.695920	198.180671	-1829.496582	1217.699597	101.207853	-1788.407422	1194.678994	113.046785	-1819.220193	1150.637412	85.285031	-1803.924081	1027.778001	76.427080	-1820.158736	1001.930132	144.121334	-1589.110395	1085.554960	200.088791	-1557.009137	1025.154814	170.877152	-1533.910119	1125.364513	175.548383	-1822.332905	1404.075253	503.312712	-1963.453347	1336.969870	606.338192	-1966.106280	1289.127233	608.457148	-2019.497913	1307.736552	631.081257	-2128.768376	1237.331298	668.471986	-2162.878822	1241.907837	607.628864	-2125.964700	976.400481	641.641308	-2181.135044	987.257650	689.148950	-2094.930164	928.903128	699.315713	-1945.490342	922.022428	444.938802	-2106.149223	1070.974124	400.984011	-2126.517502	1043.346662	374.902411	-2108.971449	1038.190620	431.437997	-2130.084355	723.596651	169.730125	-2115.783266	640.428087	164.691548	-2069.019929	631.788716	166.554114	-2153.890251	594.725483	179.440526	-2209.169647	310.519901	241.505530	-2289.500692	310.649740	206.117840	-2259.125686	285.726395	223.750700	-2300.808941	223.751051	265.604068	-2438.684430	139.850906	277.704733	-2522.129829	131.545948	332.049386	-2316.018980	54.763628	339.540071	-2322.905927	54.224660	294.531450	-1902.835920	739.725709	530.784110	-1841.822407	717.093522	524.535157	-1816.557104	734.529485	508.012784	-1821.460432	635.009069	511.204480	-1766.235047	559.011454	488.172887	-1926.925428	446.671101	430.713071	-2020.180886	481.805971	468.838218	-2007.676942	442.891183	447.139747	-2050.198644	423.598232	414.889207	-2154.318775	447.053523	447.015884	-2218.681436	503.745552	404.333991	-2165.851303	287.192102	368.569871	-2161.605305	284.326546	410.584079	-2196.939500	313.160097	463.952472	
483	2.410000	-1588.965885	1526.200053	396.728674	-1749.296839	1585.230575	292.960339	-1726.605843	1565.585026	416.009138	-1857.283963	1451.062350	337.197727	-2032.649769	1147.714040	378.580611	-1749.398367	1317.928198	342.375080	-1772.392996	1393.788972	201.079830	-1794.228142	1223.469051	102.705063	-1752.688782	1201.295542	114.477570	-1782.681465	1156.652170	86.797392	-1764.423626	1034.548076	77.279646	-1779.713449	1007.946998	144.604034	-1553.634839	1103.751547	202.383761	-1518.439358	1044.710215	174.174231	-1500.530846	1145.995547	177.322375	-1795.782233	1407.954109	504.485719	-1938.396184	1343.788282	606.149035	-1941.765203	1295.981800	608.397363	-1995.071763	1315.456600	630.294003	-2106.217801	1247.597765	666.560716	-2139.330549	1252.395600	605.328347	-2107.832300	986.399394	641.998975	-2163.276205	998.749377	688.940103	-2078.342713	938.592382	700.260435	-1914.707482	926.099071	445.428426	-2075.499577	1072.393702	398.129394	-2095.602345	1044.528847	372.118640	-2078.932040	1040.020268	428.904896	-2105.743850	725.943929	170.153857	-2095.337810	642.185607	165.511418	-2049.029600	631.602734	167.844143	-2135.700598	598.479436	179.549456	-2200.143618	315.548838	240.533530	-2280.899544	317.537101	206.123099	-2250.580495	291.815567	222.817326	-2292.761315	229.714237	264.254379	-2431.606309	147.161540	276.508493	-2514.357129	142.796050	330.975096	-2314.265666	54.110702	339.391656	-2321.612856	54.138487	294.385064	-1868.596157	747.021062	529.894288	-1806.878410	726.557570	523.126459	-1782.302500	745.149345	506.678292	-1783.791601	645.244981	508.771848	-1725.842998	571.299459	485.615965	-1879.317315	447.977069	429.695117	-1974.590421	476.894488	468.311568	-1959.564677	438.796549	446.725325	-2000.893409	416.563953	414.908486	-2106.669493	432.243787	447.492566	-2175.213752	484.350790	405.541681	-2105.861183	272.585960	368.172864	-2101.465203	269.754011	410.272831	-2138.942338	295.426598	464.001096	
484	2.415000	-1559.973505	1529.524271	398.460701	-1720.397952	1588.738813	294.988448	-1697.489366	1569.005593	417.924660	-1828.278401	1453.894249	338.123345	-2002.422699	1149.319897	375.554634	-1719.852777	1321.719622	344.852246	-1741.439471	1398.990656	204.115825	-1759.312849	1229.570793	104.221869	-1717.379041	1208.194953	115.914218	-1746.556265	1163.031870	88.287560	-1725.743315	1041.704912	77.890319	-1740.471071	1014.237618	144.640658	-1519.473372	1121.612077	204.503758	-1481.394647	1064.004036	177.322290	-1468.425046	1166.044008	178.992058	-1768.981703	1411.790047	505.737917	-1913.026608	1350.479235	605.933008	-1917.146246	1302.739553	608.265000	-1970.352525	1323.060930	629.407849	-2083.347444	1257.689290	664.360143	-2115.330287	1262.562351	602.676207	-2088.888168	996.288854	642.298076	-2144.626782	1010.052991	688.538106	-2060.931976	948.322979	701.231253	-1883.815530	930.219642	446.038934	-2044.599004	1073.871495	394.950296	-2064.423727	1045.808999	368.990920	-2048.810208	1041.939820	426.016412	-2080.840508	728.683244	170.635855	-2074.311909	644.477421	166.447185	-2028.527207	632.049695	169.367428	-2116.829055	602.837133	179.755160	-2190.250491	321.497261	239.490237	-2271.419338	325.241304	206.099818	-2241.118705	298.748287	221.869844	-2283.642186	236.360367	262.691910	-2423.303797	154.839433	275.014608	-2505.077325	154.719877	329.648894	-2312.256654	53.631777	339.103976	-2320.014733	54.145860	294.113538	-1834.604213	754.213753	529.065387	-1772.341923	735.717819	521.777807	-1748.441035	755.352192	505.408631	-1746.868174	655.185205	506.426367	-1686.580480	583.262721	483.099978	-1831.928554	449.200099	428.757419	-1928.920328	471.709851	467.820846	-1911.354779	434.577057	446.359056	-1951.220989	409.403302	414.921728	-2058.159583	417.119720	447.905773	-2130.522939	464.263338	406.616052	-2044.971357	258.559424	367.758799	-2040.409477	255.763251	409.910161	-2079.802854	278.111406	463.933428	
